<svg width="106" height="106" viewBox="0 0 106 106" fill="none" xmlns="http://www.w3.org/2000/svg">
<path d="M53 53C65.1963 53 75.0834 43.113 75.0834 30.9167C75.0834 18.7204 65.1963 8.83334 53 8.83334C40.8037 8.83334 30.9167 18.7204 30.9167 30.9167C30.9167 43.113 40.8037 53 53 53Z" stroke="black" stroke-width="1.5" stroke-linecap="round" stroke-linejoin="round"/>
<path d="M15.061 97.1667C15.061 80.0742 32.0651 66.25 53.0001 66.25C57.2401 66.25 61.3477 66.8241 65.1902 67.8841" stroke="black" stroke-width="1.5" stroke-linecap="round" stroke-linejoin="round"/>
<path d="M97.1666 79.5C97.1666 80.9133 96.99 82.2825 96.6367 83.6075C96.2392 85.3741 95.5325 87.0967 94.605 88.5983C91.5575 93.7217 85.9483 97.1667 79.5 97.1667C74.9508 97.1667 70.8433 95.444 67.7516 92.6174C66.4266 91.469 65.2783 90.1 64.3949 88.5983C62.7608 85.9483 61.8333 82.8125 61.8333 79.5C61.8333 74.73 63.7325 70.3576 66.8242 67.1776C70.0483 63.8651 74.5533 61.8333 79.5 61.8333C84.7116 61.8333 89.4375 64.0859 92.6175 67.7076C95.4442 70.8434 97.1666 74.995 97.1666 79.5Z" stroke="black" stroke-width="1.5" stroke-miterlimit="10" stroke-linecap="round" stroke-linejoin="round"/>
<path d="M86.0808 79.4116H72.9192" stroke="#52ABCF" stroke-width="1.5" stroke-miterlimit="10" stroke-linecap="round" stroke-linejoin="round"/>
<path d="M79.5 72.9634V86.1692" stroke="#52ABCF" stroke-width="1.5" stroke-miterlimit="10" stroke-linecap="round" stroke-linejoin="round"/>
</svg>
